HIERARCHY
ROOT Hips
{
	OFFSET -0.001795 -0.223333 0.028219
	CHANNELS 6 Xposition Yposition Zposition Zrotation Yrotation Xrotation 
	JOINT LeftUpLeg
	{
		OFFSET 0.069520 -0.091406 -0.006815
		CHANNELS 3 Zrotation Yrotation Xrotation
		JOINT LeftLeg
		{
			OFFSET 0.034277 -0.375199 -0.004496
			CHANNELS 3 Zrotation Yrotation Xrotation
			JOINT LeftFoot
			{
				OFFSET -0.013596 -0.397961 -0.043693
				CHANNELS 3 Zrotation Yrotation Xrotation
				JOINT LeftToe
				{
					OFFSET 0.026358 -0.055791 0.119288
					CHANNELS 3 Zrotation Yrotation Xrotation
					End Site
					{
						OFFSET 0.000000 0.000000 0.000000
					}
				}
			}
		}
	}
	JOINT RightUpLeg
	{
		OFFSET -0.067670 -0.090522 -0.004320
		CHANNELS 3 Zrotation Yrotation Xrotation
		JOINT RightLeg
		{
			OFFSET -0.038290 -0.382569 -0.008850
			CHANNELS 3 Zrotation Yrotation Xrotation
			JOINT RightFoot
			{
				OFFSET 0.015774 -0.398415 -0.042312
				CHANNELS 3 Zrotation Yrotation Xrotation
				JOINT RightToe
				{
					OFFSET -0.025372 -0.048144 0.123348
					CHANNELS 3 Zrotation Yrotation Xrotation
					End Site
					{
						OFFSET 0.000000 0.000000 0.000000
					}
				}
			}
		}
	}
	JOINT Spine
	{
		OFFSET -0.002533 0.108963 -0.026696
		CHANNELS 3 Zrotation Yrotation Xrotation
		JOINT Spine1
		{
			OFFSET 0.005487 0.135180 0.001092
			CHANNELS 3 Zrotation Yrotation Xrotation
			JOINT Spine2
			{
				OFFSET 0.001457 0.052922 0.025425
				CHANNELS 3 Zrotation Yrotation Xrotation
				JOINT Neck
				{
					OFFSET -0.002778 0.213870 -0.042857
					CHANNELS 3 Zrotation Yrotation Xrotation
					JOINT Head
					{
						OFFSET 0.005152 0.064970 0.051349
						CHANNELS 3 Zrotation Yrotation Xrotation
						End Site
						{
							OFFSET 0.000000 0.000000 0.000000
						}
					}
				}
				JOINT LeftShoulder
				{
					OFFSET 0.078845 0.121749 -0.034090
					CHANNELS 3 Zrotation Yrotation Xrotation
					JOINT LeftArm
					{
						OFFSET 0.090977 0.030469 -0.008868
						CHANNELS 3 Zrotation Yrotation Xrotation
						JOINT LeftForeArm
						{
							OFFSET 0.259612 -0.012772 -0.027456
							CHANNELS 3 Zrotation Yrotation Xrotation
							JOINT LeftHand
							{
								OFFSET 0.249234 0.008986 -0.001171
								CHANNELS 3 Zrotation Yrotation Xrotation
								End Site
								{
									OFFSET 0.000000 0.000000 0.000000
								}
							}
						}
					}
				}
				JOINT RightShoulder
				{
					OFFSET -0.081759 0.118833 -0.038615
					CHANNELS 3 Zrotation Yrotation Xrotation
					JOINT RightArm
					{
						OFFSET -0.096012 0.032551 -0.009143
						CHANNELS 3 Zrotation Yrotation Xrotation
						JOINT RightForeArm
						{
							OFFSET -0.253742 -0.013329 -0.021401
							CHANNELS 3 Zrotation Yrotation Xrotation
							JOINT RightHand
							{
								OFFSET -0.255298 0.007772 -0.005559
								CHANNELS 3 Zrotation Yrotation Xrotation
								End Site
								{
									OFFSET 0.000000 0.000000 0.000000
								}
							}
						}
					}
				}
			}
		}
	}
}
MOTION
Frames: 16
Frame Time: 0.050000
-0.025351 0.906908 -1.739850 -2.123823 0.367473 -5.121449 4.899546 -0.097036 -1.879270 -0.496684 -1.387761 39.461551 2.546886 1.800615 -8.468932 0.000000 0.000000 0.000000 -3.170963 2.133391 -28.886138 0.637733 0.379117 13.253224 -4.394936 -14.180366 20.448421 0.000000 0.000000 0.000000 -3.877454 -0.236321 24.550727 10.122865 -2.358532 -20.565473 -2.098026 -8.264342 28.731467 0.721575 0.305641 -34.313311 0.000000 0.000000 0.000000 -19.075301 0.830984 0.496599 -53.787903 -9.612832 -4.989664 -10.806584 -44.678223 8.465167 0.000000 0.000000 0.000000 12.556329 1.955225 -1.006605 57.126237 -9.101019 -12.678363 11.668966 32.317160 4.146205 0.000000 0.000000 0.000000 
-0.018729 0.910061 -1.793739 -2.880565 -1.107876 -6.385539 5.370828 -0.089560 -2.611544 -1.327128 -0.685093 36.855148 3.605797 4.096177 -9.806319 0.000000 0.000000 0.000000 -3.135317 2.116417 -27.285205 1.574074 0.145416 11.371261 -5.347346 -15.741691 19.182694 0.000000 0.000000 0.000000 -4.934590 0.048788 25.213482 9.325368 -2.203156 -20.274433 -0.687947 -8.175472 29.106853 -0.071329 0.470934 -32.428801 0.000000 0.000000 0.000000 -17.240817 0.769693 0.627589 -53.551507 -11.634022 -3.969749 -10.121568 -43.051164 7.878301 0.000000 0.000000 0.000000 9.826425 1.546138 -0.886323 59.969678 -9.826660 -14.020379 14.291939 34.706321 5.242018 0.000000 0.000000 0.000000 
-0.014697 0.922378 -1.843056 -3.199104 -2.001666 -6.173117 5.595512 -0.141279 -4.226337 -2.724639 0.119428 32.734589 4.491796 7.453998 -7.130683 0.000000 0.000000 0.000000 -3.586389 2.084791 -27.387946 3.689665 -0.190900 17.421521 -7.388298 -18.905774 16.522970 0.000000 0.000000 0.000000 -5.788983 0.259256 23.772623 9.811984 -2.393754 -19.915013 -0.602045 -8.280929 29.753636 -0.677316 0.710136 -33.003145 0.000000 0.000000 0.000000 -17.551774 1.090366 0.663416 -53.280673 -11.420823 -4.215791 -9.912207 -43.229326 8.004723 0.000000 0.000000 0.000000 8.213823 1.353288 -0.786519 60.735304 -10.306767 -14.688853 18.973481 37.161535 7.114398 0.000000 0.000000 0.000000 
-0.013261 0.937498 -1.888905 -3.557707 -3.415113 -5.949238 5.488434 -0.158061 -4.899203 -3.084956 0.410552 27.186037 4.600630 8.561918 -4.644041 0.000000 0.000000 0.000000 -3.780059 2.017429 -25.977563 6.045301 -0.726564 26.625382 -7.630789 -19.413580 15.201536 0.000000 0.000000 0.000000 -6.367786 0.377687 20.973228 9.656546 -2.404867 -19.557846 -0.403061 -7.927814 30.533689 -1.191350 0.873252 -32.958775 0.000000 0.000000 0.000000 -16.818327 1.777983 0.376318 -54.013352 -10.685367 -4.534262 -12.022508 -42.335350 8.745728 0.000000 0.000000 0.000000 6.913875 2.122401 -0.315757 61.292575 -10.563859 -15.188168 22.394183 39.456975 8.767732 0.000000 0.000000 0.000000 
-0.014448 0.948344 -1.933374 -3.787971 -2.736136 -5.998919 6.191150 -0.178669 -6.258263 -2.665211 0.185021 23.638932 4.067602 8.091326 -1.733972 0.000000 0.000000 0.000000 -4.752050 1.518047 -22.589520 7.287813 -1.324930 36.682428 -7.436249 -18.915495 13.384642 0.000000 0.000000 0.000000 -6.360976 0.299480 19.303961 9.330083 -2.417047 -18.539791 0.122393 -8.772639 29.860387 -2.104887 1.197855 -30.524296 0.000000 0.000000 0.000000 -16.832570 2.624348 -0.033633 -54.551208 -8.818203 -5.254939 -14.247234 -41.294679 9.388849 0.000000 0.000000 0.000000 5.210141 2.608499 0.089141 62.105163 -9.952879 -15.190373 24.922308 42.838198 10.514043 0.000000 0.000000 0.000000 
-0.018052 0.952847 -1.978706 -3.668629 -1.490607 -5.683506 5.919543 -0.330982 -9.162798 -2.240991 -0.029092 22.191916 2.720286 5.977107 0.778896 0.000000 0.000000 0.000000 -5.380765 1.016654 -17.124509 7.723461 -1.927486 45.769852 -6.883417 -17.720127 10.957399 0.000000 0.000000 0.000000 -7.305680 0.351729 17.093094 9.689425 -2.562554 -17.963119 0.121249 -8.352694 29.782032 -1.226040 0.868551 -29.722802 0.000000 0.000000 0.000000 -16.423239 3.759708 -0.896164 -55.068428 -6.113712 -6.403423 -16.687706 -40.097358 9.896119 0.000000 0.000000 0.000000 5.990186 2.626175 0.067506 60.014796 -9.870091 -14.317079 26.088165 44.255873 11.478718 0.000000 0.000000 0.000000 
-0.023580 0.948433 -2.026551 -2.828179 -0.799198 -5.390351 5.332164 -0.578215 -13.270410 -2.245220 -0.078967 23.068855 1.788011 4.780707 2.791633 0.000000 0.000000 0.000000 -6.270301 0.571441 -10.823950 6.417665 -1.443504 52.809908 -5.120162 -14.445850 10.874189 0.000000 0.000000 0.000000 -8.667549 0.492631 15.886168 9.339827 -2.387763 -18.417312 1.030439 -7.194483 29.982140 -0.995674 0.896503 -27.582170 0.000000 0.000000 0.000000 -16.704673 4.216366 -1.428784 -54.256426 -3.855472 -7.377621 -19.753461 -38.761262 10.469198 0.000000 0.000000 0.000000 6.370141 2.789842 0.217908 58.945771 -10.239381 -14.046702 26.818198 46.125750 12.598863 0.000000 0.000000 0.000000 
-0.031167 0.938875 -2.078723 -1.843585 0.584099 -5.092496 5.013798 -0.919508 -18.508737 -2.829256 -0.012320 25.203783 1.599011 5.246569 5.082642 0.000000 0.000000 0.000000 -6.662574 0.251060 -4.515968 5.085174 -1.034012 56.035324 -2.679143 -10.450784 14.002755 0.000000 0.000000 0.000000 -10.132243 0.607282 14.783441 9.965437 -2.620013 -17.840235 1.476699 -5.282709 29.677835 -0.151276 0.923598 -28.444243 0.000000 0.000000 0.000000 -17.686742 5.490439 -2.704542 -53.565789 -1.844901 -8.156602 -20.765169 -37.341205 10.092211 0.000000 0.000000 0.000000 6.418139 3.154186 0.591925 58.292652 -9.901439 -13.416118 26.784024 48.339739 13.784238 0.000000 0.000000 0.000000 
-0.041870 0.924341 -2.136922 -0.406542 0.361079 -4.844466 4.278294 -1.353341 -23.966642 -3.158965 0.114582 27.253371 1.734146 5.812528 6.145145 0.000000 0.000000 0.000000 -7.171302 -0.013664 2.416760 3.001106 0.443870 52.016404 -0.982653 -7.665211 14.879878 0.000000 0.000000 0.000000 -11.381931 0.748855 14.148977 9.578233 -2.554548 -17.378823 2.480266 -3.075280 29.875949 0.168705 1.054716 -27.876354 0.000000 0.000000 0.000000 -19.216472 4.980287 -2.953779 -53.042076 -0.088736 -8.895950 -19.556632 -37.048643 9.328417 0.000000 0.000000 0.000000 6.876490 5.622784 1.746140 57.876821 -9.522192 -12.967350 26.267317 51.445419 15.006382 0.000000 0.000000 0.000000 
-0.056440 0.908068 -2.202076 0.765612 -0.228442 -4.069845 4.060533 -1.638152 -28.527118 -2.579464 -0.008455 25.798770 1.842485 6.709850 8.702440 0.000000 0.000000 0.000000 -6.096428 -0.224871 6.873130 0.789249 1.718996 46.027323 -0.320103 -5.608363 11.818318 0.000000 0.000000 0.000000 -11.825028 0.824738 13.618648 10.073924 -2.865346 -16.072050 2.668560 0.352891 28.384566 1.858950 0.680361 -28.368140 0.000000 0.000000 0.000000 -20.340833 3.887956 -3.255298 -53.008845 3.283954 -10.073568 -17.682971 -38.375635 8.580966 0.000000 0.000000 0.000000 7.455452 6.330770 2.301933 57.625581 -8.312044 -11.951332 23.172392 53.969090 14.848292 0.000000 0.000000 0.000000 
-0.074718 0.896758 -2.273475 1.241976 -0.902145 -4.200291 4.761242 -1.472277 -29.932906 -2.062324 -0.079176 21.855394 2.477233 7.908970 9.417758 0.000000 0.000000 0.000000 -3.678147 -0.478099 8.214241 -1.173382 2.456339 39.115951 -2.212633 -6.365587 2.064324 0.000000 0.000000 0.000000 -11.508731 0.913066 15.201218 10.290289 -2.924981 -16.264607 3.106545 2.099492 28.716670 1.129197 1.430945 -30.305275 0.000000 0.000000 0.000000 -22.089531 4.874056 -4.423170 -52.561896 4.900446 -10.623558 -16.735072 -37.383697 7.842827 0.000000 0.000000 0.000000 5.987975 7.275555 2.765489 57.623729 -6.391220 -10.965297 20.979087 56.070367 14.673082 0.000000 0.000000 0.000000 
-0.095292 0.895609 -2.347073 0.399802 0.052039 -3.742449 6.136880 -1.223185 -30.488191 -1.136067 -0.231138 14.309645 1.323055 6.248637 10.079536 0.000000 0.000000 0.000000 -0.690106 -0.529910 5.772640 -0.120300 1.523597 34.394551 -4.948740 -11.034254 -5.724745 0.000000 0.000000 0.000000 -8.915152 0.629998 17.297121 10.028980 -2.741710 -16.919105 2.282480 1.946848 28.050898 1.649164 1.293569 -31.234049 0.000000 0.000000 0.000000 -23.386226 5.384823 -5.115843 -52.781847 6.772187 -11.352011 -14.963486 -38.074667 7.298916 0.000000 0.000000 0.000000 7.451871 8.126975 3.225957 56.954235 -5.276779 -10.265212 16.333157 57.400986 12.567638 0.000000 0.000000 0.000000 
-0.114962 0.902209 -2.416474 -0.518760 1.017786 -3.119286 7.848628 -0.867916 -30.411360 -1.553824 0.003121 7.528763 2.418445 8.350030 10.646977 0.000000 0.000000 0.000000 1.178044 -0.206253 1.701136 1.764059 0.528689 33.255466 -5.914839 -13.652951 -7.213110 0.000000 0.000000 0.000000 -7.646002 0.434064 18.260241 10.107393 -2.541438 -18.585306 2.213659 0.523169 28.407273 0.403769 1.753008 -30.315843 0.000000 0.000000 0.000000 -23.602580 7.111848 -5.979813 -53.151095 8.650311 -12.266494 -16.493533 -36.563885 7.586024 0.000000 0.000000 0.000000 7.184292 8.684379 3.382338 56.052859 -4.273651 -9.738139 16.657163 56.601855 12.327064 0.000000 0.000000 0.000000 
-0.130443 0.915969 -2.477831 -0.115361 2.202560 -2.055742 8.015544 -0.947820 -30.325562 -3.820225 0.376025 8.448532 5.755822 13.401730 7.559919 0.000000 0.000000 0.000000 1.916309 0.371296 -3.403637 1.861948 0.311036 32.155665 -6.275920 -15.056984 -5.818591 0.000000 0.000000 0.000000 -7.501803 0.375802 17.445903 11.130898 -2.826514 -18.540454 0.933092 0.240805 27.516800 0.792100 1.650125 -30.985356 0.000000 0.000000 0.000000 -22.500677 7.161635 -5.959764 -54.896547 9.548530 -12.997471 -16.012407 -36.207803 7.306621 0.000000 0.000000 0.000000 6.955870 8.122530 3.181531 56.732285 -5.086137 -10.094674 18.611077 54.815794 12.909088 0.000000 0.000000 0.000000 
-0.141225 0.929805 -2.531315 0.846135 4.165606 -2.427413 6.877315 -1.325723 -28.700089 -6.146566 0.838107 21.344332 7.836173 15.782182 -2.079298 0.000000 0.000000 0.000000 1.636962 0.618078 -5.567600 2.205717 -0.072803 31.322895 -5.121553 -12.396274 -3.346208 0.000000 0.000000 0.000000 -7.249003 0.264836 16.993516 10.135575 -2.335999 -19.937200 0.816881 -2.306818 28.282872 0.680086 1.435562 -30.810125 0.000000 0.000000 0.000000 -22.520127 7.588476 -5.782091 -55.023056 9.179110 -13.013578 -16.090358 -35.481117 7.355680 0.000000 0.000000 0.000000 7.048849 6.418041 2.368149 56.689782 -7.134727 -11.236108 22.695190 52.190244 13.970532 0.000000 0.000000 0.000000 
-0.147904 0.941227 -2.581262 1.292635 4.513051 -2.910953 6.131956 -1.298500 -25.090447 -8.848280 1.905981 35.350442 8.575921 17.114341 -3.622628 0.000000 0.000000 0.000000 1.211719 0.837623 -7.765361 1.661919 0.113784 30.668905 -4.473551 -11.194470 -0.432473 0.000000 0.000000 0.000000 -6.812007 0.177672 15.865959 9.704507 -2.077397 -21.130312 -0.193090 -2.453048 29.626885 1.738978 0.876946 -30.988460 0.000000 0.000000 0.000000 -22.090062 7.196690 -5.437370 -55.170429 7.794484 -12.604414 -15.095198 -34.554899 6.867228 0.000000 0.000000 0.000000 6.697459 4.635127 1.658085 57.515893 -9.191520 -12.488005 25.297858 48.747716 14.177564 0.000000 0.000000 0.000000 
